<svg xmlns="http://www.w3.org/2000/svg" viewBox="0 0 512 512"><rect width="512" height="512" fill="#050505"/><g fill="#F2F2F2"><circle cx="94.2" cy="197.6" r="7.4"/><circle cx="113.7" cy="197.6" r="7.4"/><circle cx="133.1" cy="197.6" r="7.4"/><circle cx="152.6" cy="197.6" r="7.4"/><circle cx="94.2" cy="217.1" r="7.4"/><circle cx="172.0" cy="217.1" r="7.4"/><circle cx="94.2" cy="236.5" r="7.4"/><circle cx="172.0" cy="236.5" r="7.4"/><circle cx="94.2" cy="256.0" r="7.4"/><circle cx="113.7" cy="256.0" r="7.4"/><circle cx="133.1" cy="256.0" r="7.4"/><circle cx="152.6" cy="256.0" r="7.4"/><circle cx="94.2" cy="275.5" r="7.4"/><circle cx="94.2" cy="294.9" r="7.4"/><circle cx="94.2" cy="314.4" r="7.4"/><circle cx="217.1" cy="197.6" r="7.4"/><circle cx="294.9" cy="197.6" r="7.4"/><circle cx="217.1" cy="217.1" r="7.4"/><circle cx="294.9" cy="217.1" r="7.4"/><circle cx="217.1" cy="236.5" r="7.4"/><circle cx="294.9" cy="236.5" r="7.4"/><circle cx="217.1" cy="256.0" r="7.4"/><circle cx="236.5" cy="256.0" r="7.4"/><circle cx="256.0" cy="256.0" r="7.4"/><circle cx="275.5" cy="256.0" r="7.4"/><circle cx="294.9" cy="256.0" r="7.4"/><circle cx="217.1" cy="275.5" r="7.4"/><circle cx="294.9" cy="275.5" r="7.4"/><circle cx="217.1" cy="294.9" r="7.4"/><circle cx="294.9" cy="294.9" r="7.4"/><circle cx="217.1" cy="314.4" r="7.4"/><circle cx="294.9" cy="314.4" r="7.4"/><circle cx="340.0" cy="197.6" r="7.4"/><circle cx="359.4" cy="197.6" r="7.4"/><circle cx="378.9" cy="197.6" r="7.4"/><circle cx="398.3" cy="197.6" r="7.4"/><circle cx="417.8" cy="197.6" r="7.4"/><circle cx="378.9" cy="217.1" r="7.4"/><circle cx="378.9" cy="236.5" r="7.4"/><circle cx="378.9" cy="256.0" r="7.4"/><circle cx="378.9" cy="275.5" r="7.4"/><circle cx="378.9" cy="294.9" r="7.4"/><circle cx="340.0" cy="314.4" r="7.4"/><circle cx="359.4" cy="314.4" r="7.4"/><circle cx="378.9" cy="314.4" r="7.4"/><circle cx="398.3" cy="314.4" r="7.4"/><circle cx="417.8" cy="314.4" r="7.4"/></g></svg>